<svg xmlns="http://www.w3.org/2000/svg" width="512" height="512">
    <path d="M444.255 297.913c-11.423 0-20.682 9.259-20.682 20.682v125.66c0 14.547-11.835 26.381-26.381 26.381H67.746c-14.547 0-26.381-11.835-26.381-26.381V114.81c0-14.547 11.835-26.381 26.381-26.381h125.66c11.422 0 20.682-9.26 20.682-20.682s-9.26-20.682-20.682-20.682H67.746C30.391 47.065 0 77.456 0 114.811v329.445C.001 481.609 30.392 512 67.746 512h329.445c37.355 0 67.746-30.391 67.746-67.746v-125.66c0-11.422-9.259-20.681-20.682-20.681z"
          fill="black"/>
    <path d="M505.942 100.185L411.815 6.058c-8.077-8.077-21.172-8.077-29.249 0L147.249 241.376a20.687 20.687 0 0 0-6.058 14.625v94.127c0 11.423 9.26 20.682 20.682 20.682H256a20.68 20.68 0 0 0 14.624-6.057l235.318-235.319a20.683 20.683 0 0 0 0-29.249zm-258.508 229.26h-64.878v-64.878L397.191 49.932l64.878 64.878-214.635 214.635z"
          fill="black"/>
</svg>