<?xml version="1.0" encoding="iso-8859-1"?>
<!-- Generator: Adobe Illustrator 19.0.0, SVG Export Plug-In . SVG Version: 6.00 Build 0)  -->
<svg xmlns="http://www.w3.org/2000/svg" xmlns:xlink="http://www.w3.org/1999/xlink" version="1.1" id="Capa_1" x="0px" y="0px" viewBox="0 0 512 512" style="enable-background:new 0 0 512 512;" xml:space="preserve" width="512px" height="512px">
<g>
	<g>
		<path d="M433.5,0h-355C74.357,0,71,3.358,71,7.5v497c0,4.142,3.358,7.5,7.5,7.5h355c4.143,0,7.5-3.358,7.5-7.5V7.5    C441,3.358,437.643,0,433.5,0z M426,461.501h-28c-4.143,0-7.5,3.358-7.5,7.5c0,4.142,3.357,7.5,7.5,7.5h28V497H86v-20.499h276.5    c4.143,0,7.5-3.358,7.5-7.5c0-4.142-3.357-7.5-7.5-7.5H86V15h340V461.501z" fill="#949294"/>
	</g>
</g>
<g>
	<g>
		<path d="M398,35.499H114c-4.142,0-7.5,3.358-7.5,7.5v319.5c0,4.142,3.358,7.5,7.5,7.5h284c4.142,0,7.5-3.358,7.5-7.5v-319.5    C405.5,38.857,402.143,35.499,398,35.499z M121.5,50.499h205.48c0.006,0,0.013,0.001,0.019,0.001c5.652,0,10.25,4.598,10.25,10.25    S332.651,71,326.999,71l-35.498-0.001c-13.923,0-25.25,11.327-25.25,25.25c0,13.923,11.327,25.25,25.25,25.25l71,0.001    c5.652,0,10.25,4.598,10.25,10.25S368.153,142,362.501,142h-106.5c-13.923,0-25.25,11.327-25.25,25.25    c0,13.923,11.327,25.25,25.25,25.25h36.452l-47.102,78.503l-3.02-5.033c-25.044-41.74-49.394-82.322-50.829-84.714    c-0.631-1.099-1.55-2.052-2.722-2.735c-3.545-2.068-8.097-0.9-10.209,2.62L121.5,276.258V50.499z M313.753,157l-12.3,20.5h-45.452    c-5.652,0-10.25-4.598-10.25-10.25s4.598-10.25,10.25-10.25H313.753z M390.499,354.999H121.5v0v-49.586l63.502-105.836    l53.888,89.813c0.003,0.004,0.005,0.009,0.008,0.013l24.869,41.448c1.407,2.344,3.891,3.642,6.438,3.642    c1.313,0,2.644-0.345,3.852-1.07c3.552-2.131,4.704-6.738,2.573-10.29l-22.532-37.553L327,164.078l63.499,105.83V354.999z     M390.5,240.755c-19.898-33.163-40.06-66.765-50.253-83.754h22.255c13.923,0,25.25-11.327,25.25-25.25    c0-13.923-11.327-25.25-25.25-25.25l-71-0.001c-5.652,0-10.25-4.598-10.25-10.25S285.85,86,291.502,86H327    c13.923,0,25.25-11.327,25.25-25.25c0-3.649-0.784-7.116-2.183-10.251H390.5V240.755z" fill="#949294"/>
	</g>
</g>
<g>
	<g>
		<path d="M185.001,71.001c-23.71,0-43,19.29-43,43c0,23.71,19.29,43,43,43c23.71,0,43-19.29,43-43    C228.001,90.291,208.711,71.001,185.001,71.001z M185.001,142c-15.439,0-28-12.561-28-28c0-15.439,12.561-28,28-28    c15.439,0,28,12.561,28,28C213.001,129.439,200.44,142,185.001,142z" fill="#949294"/>
	</g>
</g>
<g>
</g>
<g>
</g>
<g>
</g>
<g>
</g>
<g>
</g>
<g>
</g>
<g>
</g>
<g>
</g>
<g>
</g>
<g>
</g>
<g>
</g>
<g>
</g>
<g>
</g>
<g>
</g>
<g>
</g>
</svg>
